<?xml version="1.0" encoding="utf-8"?>
<svg viewBox="0 0 500 500" xmlns="http://www.w3.org/2000/svg">
  <path d="M 380.92 87.076 L 503.72 209.876 C 510.92 217.076 515.02 226.976 515.02 237.176 C 515.02 247.376 510.92 257.276 503.72 264.476 L 380.92 387.276 C 374.52 393.676 365.92 397.176 356.92 397.176 C 338.22 397.176 323.02 381.976 323.02 363.276 L 323.02 301.176 L 195.02 301.176 C 177.32 301.176 163.02 286.876 163.02 269.176 L 163.02 205.176 C 163.02 187.476 177.32 173.176 195.02 173.176 L 323.02 173.176 L 323.02 111.076 C 323.02 92.376 338.22 77.176 356.92 77.176 C 365.92 77.176 374.52 80.776 380.92 87.076 Z M 163.02 77.176 L 99.02 77.176 C 81.32 77.176 67.02 91.476 67.02 109.176 L 67.02 365.176 C 67.02 382.876 81.32 397.176 99.02 397.176 L 163.02 397.176 C 180.72 397.176 195.02 411.476 195.02 429.176 C 195.02 446.876 180.72 461.176 163.02 461.176 L 99.02 461.176 C 46.02 461.176 3.02 418.176 3.02 365.176 L 3.02 109.176 C 3.02 56.176 46.02 13.176 99.02 13.176 L 163.02 13.176 C 180.72 13.176 195.02 27.476 195.02 45.176 C 195.02 62.876 180.72 77.176 163.02 77.176 Z" style="fill: rgb(65, 195, 224);"/>
</svg>