<?xml version="1.0" standalone="no"?>
<!DOCTYPE svg PUBLIC "-//W3C//DTD SVG 20010904//EN"
 "http://www.w3.org/TR/2001/REC-SVG-20010904/DTD/svg10.dtd">
<svg version="1.0" xmlns="http://www.w3.org/2000/svg"
 width="260.000000pt" height="260.000000pt" viewBox="0 0 260.000000 260.000000"
 preserveAspectRatio="xMidYMid meet">
<metadata>
Created by potrace 1.14, written by Peter Selinger 2001-2017
</metadata>
<g transform="translate(0.000000,260.000000) scale(0.100000,-0.100000)"
fill="#000000" stroke="none">
<path d="M0 1300 l0 -1300 1300 0 1300 0 0 1300 0 1300 -1300 0 -1300 0 0
-1300z m1416 813 c13 -8 24 -19 24 -24 0 -17 -22 -20 -45 -5 -33 21 -73 20
-112 -4 -43 -26 -55 -52 -52 -116 3 -68 -4 -74 -93 -74 -77 0 -88 -10 -88 -80
0 -27 -7 -51 -20 -67 l-20 -26 1 59 c0 33 3 77 7 99 l7 40 80 5 80 5 7 62 c8
72 18 95 56 121 48 34 121 37 168 5z m294 -735 c13 -115 12 -123 -6 -157 -35
-65 -70 -74 -260 -66 -138 6 -163 10 -153 21 8 10 37 14 93 15 154 2 254 13
272 31 14 14 17 36 15 138 -1 66 1 125 4 130 15 25 23 1 35 -112z m-728 -74
c-23 -14 -47 -22 -52 -19 -16 10 -2 24 33 34 57 16 63 11 19 -15z m164 -200
c-4 -14 -12 -24 -19 -21 -20 6 -20 38 0 52 21 16 28 5 19 -31z m9 -229 c0 -23
-34 -33 -45 -14 -13 20 1 40 24 37 13 -2 21 -10 21 -23z m-257 -87 l-3 -103
-47 -2 c-61 -3 -98 24 -98 71 0 45 20 68 66 75 33 5 39 10 42 34 2 19 9 27 23
27 18 0 20 -6 17 -102z m177 -3 l0 -100 -40 -2 c-67 -2 -85 5 -101 42 -23 55
7 105 63 105 30 0 33 3 33 31 0 26 3 30 23 27 21 -3 22 -7 22 -103z m543 72
c3 -22 8 -27 32 -27 46 0 61 -24 58 -89 -3 -48 -6 -56 -23 -56 -17 0 -21 8
-25 50 -4 36 -9 50 -20 50 -11 0 -16 -14 -20 -50 -4 -42 -8 -50 -25 -50 -18 0
-20 8 -23 89 -2 49 0 96 3 103 9 24 40 10 43 -20z m462 -19 l0 -51 24 22 c14
13 33 21 47 19 l22 -3 -26 -31 -26 -31 24 -33 c14 -19 25 -38 25 -42 0 -19
-46 -6 -67 20 l-22 27 -1 -28 c0 -24 -4 -28 -22 -25 -22 3 -23 8 -26 92 -3
103 0 116 28 116 17 0 20 -6 20 -52z m-556 36 c9 -3 16 -15 16 -25 0 -15 -7
-19 -35 -19 -44 0 -65 -34 -47 -75 9 -20 19 -25 47 -25 32 0 36 -3 33 -22 -3
-20 -9 -23 -47 -22 -57 1 -91 36 -91 92 1 66 67 118 124 96z m-964 -24 c0 -16
-7 -20 -30 -20 -40 0 -40 -26 1 -34 39 -7 37 -39 -3 -44 -22 -3 -27 -9 -30
-35 -2 -24 -8 -32 -23 -32 -18 0 -20 8 -23 93 l-3 92 56 0 c48 0 55 -2 55 -20z
m150 -40 c30 -30 27 -83 -6 -109 -15 -12 -38 -21 -51 -21 -30 0 -73 42 -73 70
0 24 18 61 34 72 22 15 76 8 96 -12z m448 -52 c-3 -67 -5 -73 -25 -76 -22 -3
-23 0 -23 72 0 75 0 76 25 76 26 0 26 -1 23 -72z m146 50 c9 -12 16 -33 16
-45 0 -20 -5 -23 -41 -23 -27 0 -38 -4 -33 -11 3 -6 19 -9 35 -5 24 4 29 2 29
-14 0 -39 -87 -37 -115 3 -36 51 -2 117 60 117 24 0 39 -7 49 -22z m548 5 c10
-9 18 -29 18 -45 0 -27 -2 -28 -47 -28 -39 -1 -44 -3 -30 -11 10 -6 29 -8 43
-5 19 5 24 3 24 -13 0 -38 -69 -43 -105 -6 -30 30 -32 64 -4 99 24 31 72 35
101 9z m148 -3 c0 -15 -7 -20 -25 -20 -15 0 -28 -7 -32 -16 -9 -24 11 -49 36
-47 16 2 21 -3 21 -22 0 -18 -5 -25 -19 -25 -59 0 -100 44 -87 94 9 37 33 56
72 56 27 0 34 -4 34 -20z"/>
<path d="M807 783 c-14 -13 -7 -51 10 -57 24 -10 46 21 32 45 -10 19 -30 25
-42 12z"/>
<path d="M977 784 c-12 -12 -8 -41 8 -54 20 -17 47 5 43 34 -3 21 -37 34 -51
20z"/>
<path d="M637 784 c-13 -14 -7 -52 10 -58 25 -10 51 20 37 42 -12 19 -36 27
-47 16z"/>
<path d="M1240 780 c0 -5 7 -10 15 -10 8 0 15 5 15 10 0 6 -7 10 -15 10 -8 0
-15 -4 -15 -10z"/>
<path d="M1790 780 c0 -5 4 -10 9 -10 6 0 13 5 16 10 3 6 -1 10 -9 10 -9 0
-16 -4 -16 -10z"/>
</g>
</svg>
